<?xml version="1.0" standalone="no"?>
<!DOCTYPE svg PUBLIC "-//W3C//DTD SVG 20010904//EN"
 "http://www.w3.org/TR/2001/REC-SVG-20010904/DTD/svg10.dtd">
<svg version="1.0" xmlns="http://www.w3.org/2000/svg"
 width="1200.000000pt" height="1088.000000pt" viewBox="0 0 1200.000000 1088.000000"
 preserveAspectRatio="xMidYMid meet">

<g transform="translate(0.000000,1088.000000) scale(0.100000,-0.100000)"
fill="#000000" stroke="none">
<path d="M8622 10730 c-1044 -71 -1924 -634 -2394 -1530 -30 -58 -100 -203
-154 -322 -54 -120 -101 -214 -105 -210 -3 4 -21 68 -39 142 -61 252 -128 404
-265 610 -113 169 -216 292 -394 471 -288 287 -506 441 -906 639 -345 171
-552 205 -1195 197 -647 -8 -825 -47 -1299 -283 -370 -184 -593 -338 -845
-584 -286 -280 -492 -563 -682 -937 -235 -464 -293 -754 -294 -1461 0 -549 54
-986 174 -1405 251 -872 729 -1570 1636 -2389 491 -443 798 -689 1905 -1528
642 -486 888 -684 1275 -1029 437 -389 689 -678 868 -995 23 -42 48 -76 56
-76 7 0 27 26 44 58 46 86 139 190 406 458 722 721 1503 1387 2401 2049 522
384 886 673 1250 990 207 181 665 637 798 796 403 478 660 906 858 1425 211
555 284 1412 189 2202 -61 497 -172 853 -370 1182 -467 777 -1206 1298 -2090
1474 -250 50 -585 72 -828 56z"/>
</g>
</svg>
